# xmcd
#
# Track frame offsets:
# 150
# 12792
# 25555
# 36460
# 51435
# 65277
# 79517
# 92062
# 104207
# 117245
# 128810
# 140567
#
# Disc length: 2050 seconds
#
#
# Revision: 0
# Processed by: cddbd v1.5.1PL0 Copyright (c) Steve Scherf et al.
# Submitted via: FreeRIP 2.70 
#
DISCID=a008000c
DTITLE=Roy Acuff - The Best of Roy Acuff
DYEAR=2000
DGENRE=Country
TTITLE0=Wabash Cannonball
TTITLE1=The Great Speckled Bird
TTITLE2=I'm Building A home (In The Sky)
TTITLE3=The Great Judgement Morning
TTITLE4=The Wreck On The Highway
TTITLE5=The Precious Jewel
TTITLE6=The Great Titanic
TTITLE7=Don't Judge Your Neighbor
TTITLE8=The Thief Upon The Tree
TTITLE9=Sweep Around Your Own Back Door
TTITLE10=I"m Planting A Rose
TTITLE11=Little Moses
EXTD=
EXTT0=
EXTT1=
EXTT2=
EXTT3=
EXTT4=
EXTT5=
EXTT6=
EXTT7=
EXTT8=
EXTT9=
EXTT10=
EXTT11=
PLAYORDER=
